<svg width="39" height="39" viewBox="0 0 39 39" fill="none" xmlns="http://www.w3.org/2000/svg">
<rect x="0.5" y="0.5" width="38" height="38" rx="9.5" stroke="#27272A"/>
<path d="M14.625 22.5C18.375 24.375 20.625 24.375 24.375 22.5" stroke="white" stroke-width="1.10938" stroke-linecap="round" stroke-linejoin="round"/>
<path d="M22.125 23.625L22.875 25.125C22.875 25.125 26.0033 24.129 27 22.5C27 21.75 27.3975 16.3897 24.75 14.625C23.625 13.875 21.75 13.5 21.75 13.5L21 15H19.5" stroke="white" stroke-width="1.10938" stroke-linecap="round" stroke-linejoin="round"/>
<path d="M16.8962 23.625L16.1462 25.125C16.1462 25.125 13.0179 24.129 12.0212 22.5C12.0212 21.75 11.6237 16.3897 14.2712 14.625C15.3962 13.875 17.2712 13.5 17.2712 13.5L18.0212 15H19.5212" stroke="white" stroke-width="1.10938" stroke-linecap="round" stroke-linejoin="round"/>
<path d="M16.875 21C16.254 21 15.75 20.3288 15.75 19.5C15.75 18.6712 16.254 18 16.875 18C17.496 18 18 18.6712 18 19.5C18 20.3288 17.496 21 16.875 21ZM22.125 21C21.504 21 21 20.3288 21 19.5C21 18.6712 21.504 18 22.125 18C22.746 18 23.25 18.6712 23.25 19.5C23.25 20.3288 22.746 21 22.125 21Z" stroke="white" stroke-width="1.10938" stroke-linecap="round" stroke-linejoin="round"/>
</svg>
