<svg width="220" height="34" viewBox="0 0 220 34" fill="none" xmlns="http://www.w3.org/2000/svg">
<path d="M24.01 13.986C24.01 15.894 23.692 17.646 23.056 19.242C22.42 20.838 21.526 22.212 20.374 23.364C19.222 24.516 17.836 25.41 16.216 26.046C14.596 26.682 12.796 27 10.816 27H0.898V0.971998H10.816C12.796 0.971998 14.596 1.296 16.216 1.944C17.836 2.58 19.222 3.474 20.374 4.626C21.526 5.766 22.42 7.134 23.056 8.73C23.692 10.326 24.01 12.078 24.01 13.986ZM19.042 13.986C19.042 12.558 18.85 11.28 18.466 10.152C18.094 9.012 17.548 8.052 16.828 7.272C16.12 6.48 15.256 5.874 14.236 5.454C13.228 5.034 12.088 4.824 10.816 4.824H5.758V23.148H10.816C12.088 23.148 13.228 22.938 14.236 22.518C15.256 22.098 16.12 21.498 16.828 20.718C17.548 19.926 18.094 18.966 18.466 17.838C18.85 16.698 19.042 15.414 19.042 13.986ZM31.4603 11.736C32.0363 10.632 32.7203 9.768 33.5123 9.144C34.3043 8.508 35.2403 8.19 36.3203 8.19C37.1723 8.19 37.8563 8.376 38.3723 8.748L38.0843 12.078C38.0243 12.294 37.9343 12.45 37.8143 12.546C37.7063 12.63 37.5563 12.672 37.3643 12.672C37.1843 12.672 36.9143 12.642 36.5543 12.582C36.2063 12.522 35.8643 12.492 35.5283 12.492C35.0363 12.492 34.5983 12.564 34.2143 12.708C33.8303 12.852 33.4823 13.062 33.1703 13.338C32.8703 13.602 32.6003 13.926 32.3603 14.31C32.1323 14.694 31.9163 15.132 31.7123 15.624V27H27.2663V8.532H29.8763C30.3323 8.532 30.6503 8.616 30.8303 8.784C31.0103 8.94 31.1303 9.228 31.1903 9.648L31.4603 11.736ZM50.2059 19.116C48.9219 19.176 47.8419 19.29 46.9659 19.458C46.0899 19.614 45.3879 19.818 44.8599 20.07C44.3319 20.322 43.9539 20.616 43.7259 20.952C43.4979 21.288 43.3839 21.654 43.3839 22.05C43.3839 22.83 43.6119 23.388 44.0679 23.724C44.5359 24.06 45.1419 24.228 45.8859 24.228C46.7979 24.228 47.5839 24.066 48.2439 23.742C48.9159 23.406 49.5699 22.902 50.2059 22.23V19.116ZM40.0179 11.106C42.1419 9.162 44.6979 8.19 47.6859 8.19C48.7659 8.19 49.7319 8.37 50.5839 8.73C51.4359 9.078 52.1559 9.57 52.7439 10.206C53.3319 10.83 53.7759 11.58 54.0759 12.456C54.3879 13.332 54.5439 14.292 54.5439 15.336V27H52.5279C52.1079 27 51.7839 26.94 51.5559 26.82C51.3279 26.688 51.1479 26.43 51.0159 26.046L50.6199 24.714C50.1519 25.134 49.6959 25.506 49.2519 25.83C48.8079 26.142 48.3459 26.406 47.8659 26.622C47.3859 26.838 46.8699 27 46.3179 27.108C45.7779 27.228 45.1779 27.288 44.5179 27.288C43.7379 27.288 43.0179 27.186 42.3579 26.982C41.6979 26.766 41.1279 26.448 40.6479 26.028C40.1679 25.608 39.7959 25.086 39.5319 24.462C39.2679 23.838 39.1359 23.112 39.1359 22.284C39.1359 21.816 39.2139 21.354 39.3699 20.898C39.5259 20.43 39.7779 19.986 40.1259 19.566C40.4859 19.146 40.9479 18.75 41.5119 18.378C42.0759 18.006 42.7659 17.682 43.5819 17.406C44.4099 17.13 45.3699 16.908 46.4619 16.74C47.5539 16.56 48.8019 16.452 50.2059 16.416V15.336C50.2059 14.1 49.9419 13.188 49.4139 12.6C48.8859 12 48.1239 11.7 47.1279 11.7C46.4079 11.7 45.8079 11.784 45.3279 11.952C44.8599 12.12 44.4459 12.312 44.0859 12.528C43.7259 12.732 43.3959 12.918 43.0959 13.086C42.8079 13.254 42.4839 13.338 42.1239 13.338C41.8119 13.338 41.5479 13.26 41.3319 13.104C41.1159 12.936 40.9419 12.744 40.8099 12.528L40.0179 11.106ZM63.1772 0.251999V15.57H64.0052C64.3052 15.57 64.5392 15.534 64.7072 15.462C64.8872 15.378 65.0672 15.216 65.2472 14.976L69.8372 9.306C70.0292 9.054 70.2392 8.862 70.4672 8.73C70.7072 8.598 71.0132 8.532 71.3852 8.532H75.4532L69.7112 15.39C69.3032 15.93 68.8592 16.344 68.3792 16.632C68.6312 16.812 68.8532 17.022 69.0452 17.262C69.2492 17.502 69.4412 17.76 69.6212 18.036L75.7772 27H71.7632C71.4152 27 71.1152 26.946 70.8632 26.838C70.6112 26.718 70.4012 26.508 70.2332 26.208L65.5172 19.206C65.3492 18.93 65.1752 18.75 64.9952 18.666C64.8152 18.582 64.5452 18.54 64.1852 18.54H63.1772V27H58.7312V0.251999H63.1772ZM85.1844 8.244C86.5524 8.244 87.7944 8.466 88.9104 8.91C90.0384 9.354 90.9984 9.984 91.7904 10.8C92.5944 11.616 93.2124 12.612 93.6444 13.788C94.0764 14.964 94.2924 16.278 94.2924 17.73C94.2924 19.194 94.0764 20.514 93.6444 21.69C93.2124 22.866 92.5944 23.868 91.7904 24.696C90.9984 25.524 90.0384 26.16 88.9104 26.604C87.7944 27.048 86.5524 27.27 85.1844 27.27C83.8044 27.27 82.5504 27.048 81.4224 26.604C80.2944 26.16 79.3284 25.524 78.5244 24.696C77.7324 23.868 77.1144 22.866 76.6704 21.69C76.2384 20.514 76.0224 19.194 76.0224 17.73C76.0224 16.278 76.2384 14.964 76.6704 13.788C77.1144 12.612 77.7324 11.616 78.5244 10.8C79.3284 9.984 80.2944 9.354 81.4224 8.91C82.5504 8.466 83.8044 8.244 85.1844 8.244ZM85.1844 23.85C86.7204 23.85 87.8544 23.334 88.5864 22.302C89.3304 21.27 89.7024 19.758 89.7024 17.766C89.7024 15.774 89.3304 14.256 88.5864 13.212C87.8544 12.168 86.7204 11.646 85.1844 11.646C83.6244 11.646 82.4664 12.174 81.7104 13.23C80.9664 14.274 80.5944 15.786 80.5944 17.766C80.5944 19.746 80.9664 21.258 81.7104 22.302C82.4664 23.334 83.6244 23.85 85.1844 23.85ZM122.386 23.004V27H107.14V0.971998H111.982V23.004H122.386ZM132.364 8.244C133.732 8.244 134.974 8.466 136.09 8.91C137.218 9.354 138.178 9.984 138.97 10.8C139.774 11.616 140.392 12.612 140.824 13.788C141.256 14.964 141.472 16.278 141.472 17.73C141.472 19.194 141.256 20.514 140.824 21.69C140.392 22.866 139.774 23.868 138.97 24.696C138.178 25.524 137.218 26.16 136.09 26.604C134.974 27.048 133.732 27.27 132.364 27.27C130.984 27.27 129.73 27.048 128.602 26.604C127.474 26.16 126.508 25.524 125.704 24.696C124.912 23.868 124.294 22.866 123.85 21.69C123.418 20.514 123.202 19.194 123.202 17.73C123.202 16.278 123.418 14.964 123.85 13.788C124.294 12.612 124.912 11.616 125.704 10.8C126.508 9.984 127.474 9.354 128.602 8.91C129.73 8.466 130.984 8.244 132.364 8.244ZM132.364 23.85C133.9 23.85 135.034 23.334 135.766 22.302C136.51 21.27 136.882 19.758 136.882 17.766C136.882 15.774 136.51 14.256 135.766 13.212C135.034 12.168 133.9 11.646 132.364 11.646C130.804 11.646 129.646 12.174 128.89 13.23C128.146 14.274 127.774 15.786 127.774 17.766C127.774 19.746 128.146 21.258 128.89 22.302C129.646 23.334 130.804 23.85 132.364 23.85ZM150.668 27.288C149.06 27.288 147.824 26.838 146.96 25.938C146.108 25.026 145.682 23.772 145.682 22.176V11.862H143.792C143.552 11.862 143.348 11.784 143.18 11.628C143.012 11.472 142.928 11.238 142.928 10.926V9.162L145.898 8.676L146.834 3.636C146.894 3.396 147.008 3.21 147.176 3.078C147.344 2.946 147.56 2.88 147.824 2.88H150.128V8.694H157.814L158.768 3.636C158.828 3.396 158.936 3.21 159.092 3.078C159.26 2.946 159.482 2.88 159.758 2.88H162.044V8.694H166.976V11.862H162.044V21.87C162.044 22.446 162.188 22.896 162.476 23.22C162.764 23.544 163.154 23.706 163.646 23.706C163.91 23.706 164.138 23.676 164.33 23.616C164.522 23.544 164.684 23.472 164.816 23.4C164.96 23.328 165.086 23.262 165.194 23.202C165.302 23.13 165.41 23.094 165.518 23.094C165.65 23.094 165.758 23.13 165.842 23.202C165.926 23.262 166.016 23.358 166.112 23.49L167.444 25.65C166.796 26.19 166.052 26.598 165.212 26.874C164.372 27.15 163.502 27.288 162.602 27.288C160.994 27.288 159.758 26.838 158.894 25.938C158.03 25.026 157.598 23.772 157.598 22.176V11.862H150.128V21.87C150.128 22.446 150.266 22.896 150.542 23.22C150.83 23.544 151.22 23.706 151.712 23.706C151.988 23.706 152.216 23.676 152.396 23.616C152.588 23.544 152.75 23.472 152.882 23.4C153.026 23.328 153.152 23.262 153.26 23.202C153.368 23.13 153.476 23.094 153.584 23.094C153.716 23.094 153.824 23.13 153.908 23.202C153.992 23.262 154.082 23.358 154.178 23.49L155.51 25.65C154.862 26.19 154.118 26.598 153.278 26.874C152.438 27.15 151.568 27.288 150.668 27.288ZM181.582 15.642C181.582 15.066 181.498 14.526 181.33 14.022C181.174 13.506 180.934 13.056 180.61 12.672C180.286 12.288 179.872 11.988 179.368 11.772C178.876 11.544 178.3 11.43 177.64 11.43C176.356 11.43 175.342 11.796 174.598 12.528C173.866 13.26 173.398 14.298 173.194 15.642H181.582ZM173.104 18.324C173.176 19.272 173.344 20.094 173.608 20.79C173.872 21.474 174.22 22.044 174.652 22.5C175.084 22.944 175.594 23.28 176.182 23.508C176.782 23.724 177.442 23.832 178.162 23.832C178.882 23.832 179.5 23.748 180.016 23.58C180.544 23.412 181 23.226 181.384 23.022C181.78 22.818 182.122 22.632 182.41 22.464C182.71 22.296 182.998 22.212 183.274 22.212C183.646 22.212 183.922 22.35 184.102 22.626L185.38 24.246C184.888 24.822 184.336 25.308 183.724 25.704C183.112 26.088 182.47 26.4 181.798 26.64C181.138 26.868 180.46 27.03 179.764 27.126C179.08 27.222 178.414 27.27 177.766 27.27C176.482 27.27 175.288 27.06 174.184 26.64C173.08 26.208 172.12 25.578 171.304 24.75C170.488 23.91 169.846 22.878 169.378 21.654C168.91 20.418 168.676 18.99 168.676 17.37C168.676 16.11 168.88 14.928 169.288 13.824C169.696 12.708 170.278 11.742 171.034 10.926C171.802 10.098 172.732 9.444 173.824 8.964C174.928 8.484 176.17 8.244 177.55 8.244C178.714 8.244 179.788 8.43 180.772 8.802C181.756 9.174 182.602 9.72 183.31 10.44C184.018 11.148 184.57 12.024 184.966 13.068C185.374 14.1 185.578 15.282 185.578 16.614C185.578 17.286 185.506 17.742 185.362 17.982C185.218 18.21 184.942 18.324 184.534 18.324H173.104ZM193.109 11.736C193.685 10.632 194.369 9.768 195.161 9.144C195.953 8.508 196.889 8.19 197.969 8.19C198.821 8.19 199.505 8.376 200.021 8.748L199.733 12.078C199.673 12.294 199.583 12.45 199.463 12.546C199.355 12.63 199.205 12.672 199.013 12.672C198.833 12.672 198.563 12.642 198.203 12.582C197.855 12.522 197.513 12.492 197.177 12.492C196.685 12.492 196.247 12.564 195.863 12.708C195.479 12.852 195.131 13.062 194.819 13.338C194.519 13.602 194.249 13.926 194.009 14.31C193.781 14.694 193.565 15.132 193.361 15.624V27H188.915V8.532H191.525C191.981 8.532 192.299 8.616 192.479 8.784C192.659 8.94 192.779 9.228 192.839 9.648L193.109 11.736ZM219.12 8.532L209.058 32.076C208.926 32.388 208.752 32.622 208.536 32.778C208.332 32.946 208.014 33.03 207.582 33.03H204.27L207.726 25.614L200.256 8.532H204.162C204.51 8.532 204.78 8.616 204.972 8.784C205.176 8.952 205.326 9.144 205.422 9.36L209.346 18.936C209.478 19.26 209.586 19.584 209.67 19.908C209.766 20.232 209.856 20.562 209.94 20.898C210.048 20.562 210.156 20.232 210.264 19.908C210.372 19.572 210.492 19.242 210.624 18.918L214.332 9.36C214.428 9.12 214.584 8.922 214.8 8.766C215.028 8.61 215.28 8.532 215.556 8.532H219.12Z" fill="url(#paint0_linear_2044_87)"/>
<defs>
<linearGradient id="paint0_linear_2044_87" x1="109" y1="-8" x2="109" y2="35" gradientUnits="userSpaceOnUse">
<stop stop-color="#FFD47A"/>
<stop offset="1" stop-color="#FFB210"/>
</linearGradient>
</defs>
</svg>
