<svg width="39" height="39" viewBox="0 0 39 39" fill="none" xmlns="http://www.w3.org/2000/svg">
<rect x="0.5" y="0.5" width="38" height="38" rx="9.5" stroke="#27272A"/>
<path d="M14.8556 26.6252C13.923 26.6252 13.167 25.8494 13.167 24.8915V17.9232C13.167 17.3968 13.4005 16.898 13.8003 16.5695L18.445 12.7552C18.7418 12.5095 19.115 12.375 19.5003 12.375C19.8856 12.375 20.2589 12.5095 20.5556 12.7552L25.1995 16.5695C25.6001 16.898 25.8337 17.3968 25.8337 17.9232V24.8915C25.8337 25.8494 25.0776 26.6252 24.145 26.6252H14.8556Z" stroke="white" stroke-width="1.15625" stroke-linecap="round" stroke-linejoin="round"/>
<path d="M17.5215 26.625V22.2708C17.5215 21.8509 17.6883 21.4482 17.9852 21.1512C18.2822 20.8543 18.6849 20.6875 19.1048 20.6875H19.8965C20.3164 20.6875 20.7191 20.8543 21.0161 21.1512C21.313 21.4482 21.4798 21.8509 21.4798 22.2708V26.625" stroke="white" stroke-width="1.15625" stroke-linecap="round" stroke-linejoin="round"/>
</svg>
