<svg width="16" height="16" viewBox="0 0 16 16" fill="none" xmlns="http://www.w3.org/2000/svg">
<path d="M8.05004 11.3333C8.19448 11.3333 8.31393 11.286 8.40837 11.1916C8.50282 11.0971 8.55004 10.9777 8.55004 10.8333V7.81659C8.55004 7.68325 8.50004 7.56936 8.40004 7.47492C8.30004 7.38047 8.18337 7.33325 8.05004 7.33325C7.9056 7.33325 7.78615 7.38047 7.69171 7.47492C7.59726 7.56936 7.55004 7.68881 7.55004 7.83325V10.8499C7.55004 10.9833 7.60004 11.0971 7.70004 11.1916C7.80004 11.286 7.91671 11.3333 8.05004 11.3333ZM8.00004 6.09992C8.1556 6.09992 8.28615 6.04992 8.39171 5.94992C8.49726 5.84992 8.55004 5.72214 8.55004 5.56659C8.55004 5.41103 8.49726 5.2777 8.39171 5.16658C8.28615 5.05547 8.1556 4.99992 8.00004 4.99992C7.84448 4.99992 7.71393 5.05547 7.60837 5.16658C7.50282 5.2777 7.45004 5.41103 7.45004 5.56659C7.45004 5.72214 7.50282 5.84992 7.60837 5.94992C7.71393 6.04992 7.84448 6.09992 8.00004 6.09992ZM8.00004 14.6666C7.0556 14.6666 6.17782 14.4971 5.36671 14.1583C4.5556 13.8194 3.85004 13.3499 3.25004 12.7499C2.65004 12.1499 2.1806 11.4444 1.84171 10.6333C1.50282 9.82214 1.33337 8.94436 1.33337 7.99992C1.33337 7.06659 1.50282 6.19436 1.84171 5.38325C2.1806 4.57214 2.65004 3.86659 3.25004 3.26659C3.85004 2.66659 4.5556 2.19436 5.36671 1.84992C6.17782 1.50547 7.0556 1.33325 8.00004 1.33325C8.93337 1.33325 9.8056 1.50547 10.6167 1.84992C11.4278 2.19436 12.1334 2.66659 12.7334 3.26659C13.3334 3.86659 13.8056 4.57214 14.15 5.38325C14.4945 6.19436 14.6667 7.06659 14.6667 7.99992C14.6667 8.94436 14.4945 9.82214 14.15 10.6333C13.8056 11.4444 13.3334 12.1499 12.7334 12.7499C12.1334 13.3499 11.4278 13.8194 10.6167 14.1583C9.8056 14.4971 8.93337 14.6666 8.00004 14.6666ZM8.00004 13.6666C9.5556 13.6666 10.8889 13.111 12 11.9999C13.1112 10.8888 13.6667 9.55547 13.6667 7.99992C13.6667 6.44436 13.1112 5.11103 12 3.99992C10.8889 2.88881 9.5556 2.33325 8.00004 2.33325C6.44448 2.33325 5.11115 2.88881 4.00004 3.99992C2.88893 5.11103 2.33337 6.44436 2.33337 7.99992C2.33337 9.55547 2.88893 10.8888 4.00004 11.9999C5.11115 13.111 6.44448 13.6666 8.00004 13.6666Z" fill="#A3A2A3"/>
</svg>
