<svg width="16" height="17" viewBox="0 0 16 17" fill="none" xmlns="http://www.w3.org/2000/svg">
<g id="search-icon.svg">
<path id="Vector" d="M10.9297 10.1797H10.2656L10.0312 9.94531C10.8516 9.00781 11.3203 7.75781 11.3203 6.42969C11.3203 3.42188 8.89844 1 5.92969 1C2.92188 1 0.5 3.42188 0.5 6.42969C0.5 9.39844 2.92188 11.8203 5.92969 11.8203C7.25781 11.8203 8.50781 11.3516 9.44531 10.5312L9.67969 10.7656V11.4297L13.8203 15.5703L15.0703 14.3203L10.9297 10.1797ZM5.92969 10.1797C3.85938 10.1797 2.17969 8.5 2.17969 6.42969C2.17969 4.35938 3.85938 2.67969 5.92969 2.67969C8 2.67969 9.67969 4.35938 9.67969 6.42969C9.67969 8.5 8 10.1797 5.92969 10.1797Z" fill="#54514B"/>
</g>
</svg>
